<svg width="162" height="44" viewBox="0 0 162 44" fill="none" xmlns="http://www.w3.org/2000/svg">
<path d="M56.8896 28.0724V15.7129H59.001V28.0724H56.8896ZM58.6843 22.6342V20.9039H65.0712V22.6342H58.6843ZM64.6665 28.0724V15.7129H66.7779V28.0724H64.6665Z" fill="black"/>
<path d="M73.3411 28.2835C72.4965 28.2835 71.737 28.0864 71.0626 27.692C70.3881 27.2977 69.8603 26.7504 69.4791 26.05C69.0978 25.3496 68.9072 24.5462 68.9072 23.6399C68.9072 22.7335 69.1008 21.8948 69.4879 21.1945C69.8749 20.4941 70.4057 19.9468 71.0802 19.5524C71.7546 19.1581 72.5141 18.9609 73.3587 18.9609C74.2032 18.9609 74.9627 19.1581 75.6372 19.5524C76.3116 19.9468 76.8395 20.4912 77.2207 21.1856C77.6019 21.8801 77.7925 22.6923 77.7925 23.6222C77.7925 24.5521 77.599 25.3643 77.2119 26.0588C76.8248 26.7533 76.2941 27.2977 75.6196 27.692C74.9451 28.0864 74.1856 28.2835 73.3411 28.2835ZM73.3411 26.4649C73.7634 26.4649 74.1475 26.359 74.4935 26.1471C74.8396 25.9352 75.1181 25.6174 75.3293 25.1936C75.5404 24.7699 75.646 24.2461 75.646 23.6222C75.646 22.9984 75.5433 22.4775 75.3381 22.0596C75.1328 21.6418 74.8572 21.3269 74.5111 21.115C74.1651 20.9031 73.781 20.7972 73.3587 20.7972C72.9364 20.7972 72.5669 20.9031 72.215 21.115C71.8631 21.3269 71.5816 21.6418 71.3705 22.0596C71.1593 22.4775 71.0538 22.9984 71.0538 23.6222C71.0538 24.2461 71.1593 24.7699 71.3705 25.1936C71.5816 25.6174 71.8602 25.9352 72.2062 26.1471C72.5523 26.359 72.9305 26.4649 73.3411 26.4649Z" fill="black"/>
<path d="M79.8506 28.0716V19.1728H81.7156L81.874 20.656C82.1438 20.138 82.5308 19.726 83.0352 19.42C83.5396 19.114 84.1378 18.9609 84.8299 18.9609C85.5219 18.9609 86.1553 19.111 86.6597 19.4112C87.1641 19.7113 87.5541 20.1498 87.8298 20.7266C88.1054 21.3034 88.2432 22.0214 88.2432 22.8807V28.0716H86.1319V23.0749C86.1319 22.3333 85.9677 21.7624 85.6392 21.3622C85.3108 20.962 84.824 20.7619 84.1789 20.7619C83.7566 20.7619 83.3783 20.8619 83.044 21.062C82.7097 21.2622 82.4458 21.5535 82.2523 21.936C82.0587 22.3186 81.9619 22.7806 81.9619 23.3221V28.0716H79.8506Z" fill="black"/>
<path d="M94.6302 28.2835C93.7504 28.2835 92.9763 28.0922 92.3077 27.7097C91.6391 27.3271 91.1171 26.7886 90.7417 26.0941C90.3664 25.3996 90.1787 24.5992 90.1787 23.6929C90.1787 22.7865 90.3635 21.9272 90.7329 21.221C91.1024 20.5147 91.6244 19.9615 92.2989 19.5613C92.9733 19.161 93.7563 18.9609 94.6478 18.9609C95.5392 18.9609 96.2723 19.1552 96.9175 19.5436C97.5626 19.932 98.0611 20.4529 98.413 21.1062C98.7649 21.7595 98.9409 22.4922 98.9409 23.3044V23.6929C98.9409 23.8341 98.9291 23.9812 98.9057 24.1343H91.6919V22.7747H96.8119C96.7884 22.1273 96.5714 21.6182 96.1609 21.2474C95.7504 20.8767 95.2401 20.6913 94.6302 20.6913C94.1962 20.6913 93.7973 20.7913 93.4337 20.9914C93.0701 21.1915 92.7827 21.4887 92.5716 21.8831C92.3605 22.2774 92.2549 22.7747 92.2549 23.375V23.8871C92.2549 24.4403 92.3575 24.917 92.5628 25.3172C92.7681 25.7175 93.0496 26.0206 93.4073 26.2265C93.7651 26.4325 94.1668 26.5355 94.6126 26.5355C95.1052 26.5355 95.5128 26.4296 95.8354 26.2177C96.158 26.0058 96.3955 25.7233 96.548 25.3702H98.6945C98.5303 25.9234 98.2605 26.4208 97.8852 26.8622C97.5098 27.3036 97.0465 27.6508 96.4952 27.9039C95.9439 28.157 95.3222 28.2835 94.6302 28.2835Z" fill="black"/>
<path d="M104.431 28.2835C103.645 28.2835 102.961 28.157 102.381 27.9039C101.8 27.6508 101.343 27.2977 101.008 26.8445C100.674 26.3913 100.478 25.8705 100.419 25.2819H102.53C102.589 25.5291 102.695 25.7557 102.847 25.9617C102.999 26.1677 103.208 26.3295 103.472 26.4472C103.736 26.565 104.049 26.6238 104.413 26.6238C104.777 26.6238 105.052 26.5738 105.275 26.4737C105.498 26.3737 105.662 26.2413 105.768 26.0765C105.873 25.9117 105.926 25.7351 105.926 25.5468C105.926 25.2643 105.85 25.0465 105.697 24.8935C105.545 24.7405 105.325 24.6198 105.038 24.5315C104.75 24.4432 104.407 24.3579 104.008 24.2755C103.586 24.1931 103.178 24.0901 102.785 23.9665C102.392 23.8429 102.041 23.687 101.73 23.4986C101.419 23.3103 101.173 23.069 100.991 22.7747C100.809 22.4804 100.718 22.1214 100.718 21.6977C100.718 21.1798 100.856 20.7148 101.132 20.3028C101.407 19.8908 101.806 19.5642 102.328 19.3229C102.85 19.0816 103.475 18.9609 104.202 18.9609C105.234 18.9609 106.058 19.1993 106.674 19.676C107.29 20.1527 107.65 20.8207 107.756 21.68H105.75C105.691 21.3504 105.527 21.0944 105.257 20.912C104.988 20.7295 104.63 20.6383 104.184 20.6383C103.738 20.6383 103.378 20.7236 103.137 20.8943C102.897 21.065 102.777 21.2916 102.777 21.5741C102.777 21.7624 102.85 21.9272 102.997 22.0685C103.143 22.2097 103.357 22.3304 103.639 22.4304C103.92 22.5305 104.266 22.6276 104.677 22.7217C105.334 22.8512 105.914 23.0043 106.419 23.1808C106.923 23.3574 107.322 23.6163 107.615 23.9577C107.908 24.2991 108.055 24.7817 108.055 25.4055C108.067 25.9705 107.923 26.4708 107.624 26.9063C107.325 27.3418 106.906 27.6803 106.366 27.9216C105.826 28.1629 105.181 28.2835 104.431 28.2835Z" fill="black"/>
<path d="M113.65 28.0723C113.051 28.0723 112.532 27.9781 112.093 27.7898C111.653 27.6015 111.31 27.2895 111.063 26.854C110.817 26.4185 110.694 25.83 110.694 25.0884V20.9568H109.181V19.1735H110.694L110.94 16.8252H112.805V19.1735H115.216V20.9568H112.805V25.0884C112.805 25.5357 112.902 25.8447 113.095 26.0153C113.289 26.186 113.615 26.2714 114.072 26.2714H115.163V28.0723H113.65Z" fill="black"/>
<path d="M120.846 28.0724L116.324 15.7129H118.594L122.13 25.9006L125.72 15.7129H127.954L123.415 28.0724H120.846Z" fill="black"/>
<path d="M131.298 28.2835C130.571 28.2835 129.967 28.1599 129.486 27.9127C129.005 27.6655 128.647 27.336 128.412 26.924C128.178 26.512 128.061 26.0647 128.061 25.5821C128.061 25.0171 128.204 24.5286 128.492 24.1166C128.779 23.7046 129.204 23.3839 129.767 23.1543C130.33 22.9248 131.022 22.81 131.843 22.81H134.078C134.078 22.3392 134.013 21.9478 133.884 21.6359C133.755 21.324 133.556 21.0915 133.286 20.9385C133.016 20.7854 132.67 20.7089 132.248 20.7089C131.767 20.7089 131.357 20.8178 131.016 21.0356C130.676 21.2533 130.465 21.5859 130.383 22.0332H128.307C128.377 21.3975 128.588 20.8531 128.94 20.3999C129.292 19.9468 129.758 19.5936 130.339 19.3406C130.92 19.0875 131.556 18.9609 132.248 18.9609C133.081 18.9609 133.791 19.1051 134.377 19.3935C134.964 19.6819 135.412 20.0939 135.723 20.6295C136.034 21.165 136.189 21.8095 136.189 22.5628V28.0716H134.395L134.183 26.6415C134.066 26.8769 133.917 27.0946 133.735 27.2948C133.553 27.4949 133.345 27.6685 133.11 27.8156C132.876 27.9628 132.609 28.0775 132.31 28.1599C132.011 28.2423 131.673 28.2835 131.298 28.2835ZM131.773 26.6062C132.113 26.6062 132.415 26.5444 132.679 26.4208C132.943 26.2972 133.172 26.1206 133.365 25.8911C133.559 25.6615 133.708 25.4055 133.814 25.123C133.92 24.8405 133.99 24.5404 134.025 24.2225V24.1872H132.072C131.662 24.1872 131.321 24.2402 131.052 24.3461C130.782 24.4521 130.588 24.5963 130.471 24.7787C130.354 24.9612 130.295 25.176 130.295 25.4232C130.295 25.6704 130.354 25.8822 130.471 26.0588C130.588 26.2354 130.758 26.3707 130.981 26.4649C131.204 26.5591 131.468 26.6062 131.773 26.6062Z" fill="black"/>
<path d="M138.441 28.072V15.3594H140.553V28.072H138.441Z" fill="black"/>
<path d="M146.2 28.2835C145.485 28.2835 144.872 28.1394 144.362 27.851C143.852 27.5626 143.462 27.1271 143.192 26.5444C142.922 25.9617 142.787 25.2408 142.787 24.3815V19.1729H144.898V24.1696C144.898 24.9347 145.06 25.5144 145.382 25.9088C145.705 26.3031 146.195 26.5003 146.851 26.5003C147.274 26.5003 147.652 26.4002 147.986 26.2001C148.321 26 148.585 25.7087 148.778 25.3261C148.972 24.9436 149.068 24.4757 149.068 23.9224V19.1729H151.18V28.0717H149.315L149.156 26.5885C148.887 27.1065 148.497 27.5184 147.986 27.8245C147.476 28.1305 146.881 28.2835 146.2 28.2835Z" fill="black"/>
<path d="M157.69 28.2835C156.81 28.2835 156.036 28.0922 155.367 27.7097C154.699 27.3271 154.177 26.7886 153.801 26.0941C153.426 25.3996 153.238 24.5992 153.238 23.6929C153.238 22.7865 153.423 21.9272 153.793 21.221C154.162 20.5147 154.684 19.9615 155.358 19.5613C156.033 19.161 156.816 18.9609 157.707 18.9609C158.599 18.9609 159.332 19.1552 159.977 19.5436C160.622 19.932 161.121 20.4529 161.473 21.1062C161.824 21.7595 162 22.4922 162 23.3044V23.6929C162 23.8341 161.989 23.9812 161.965 24.1343H154.751V22.7747H159.871C159.848 22.1273 159.631 21.6182 159.22 21.2474C158.81 20.8767 158.3 20.6913 157.69 20.6913C157.256 20.6913 156.857 20.7913 156.493 20.9914C156.13 21.1915 155.842 21.4887 155.631 21.8831C155.42 22.2774 155.314 22.7747 155.314 23.375V23.8871C155.314 24.4403 155.417 24.917 155.622 25.3172C155.828 25.7175 156.109 26.0206 156.467 26.2265C156.825 26.4325 157.226 26.5355 157.672 26.5355C158.165 26.5355 158.572 26.4296 158.895 26.2177C159.218 26.0058 159.455 25.7233 159.608 25.3702H161.754C161.59 25.9234 161.32 26.4208 160.945 26.8622C160.569 27.3036 160.106 27.6508 159.555 27.9039C159.003 28.157 158.382 28.2835 157.69 28.2835Z" fill="black"/>
<path d="M56.2822 41.17V34.9902H60.1091V35.7141H57.162V37.7181H59.6252V38.4244H57.162V41.17H56.2822Z" fill="#8D8D8D"/>
<path d="M62.15 41.2755C61.7863 41.2755 61.4843 41.2137 61.2438 41.0902C61.0034 40.9666 60.8245 40.8003 60.7072 40.5914C60.5899 40.3824 60.5312 40.1573 60.5312 39.916C60.5312 39.6217 60.6075 39.3701 60.76 39.1612C60.9125 38.9523 61.1295 38.7919 61.411 38.6801C61.6925 38.5682 62.0297 38.5123 62.4227 38.5123H63.5751C63.5751 38.2534 63.537 38.0385 63.4608 37.8679C63.3845 37.6972 63.2716 37.5692 63.1221 37.4838C62.9725 37.3985 62.7834 37.3558 62.5546 37.3558C62.2907 37.3558 62.0649 37.4191 61.8772 37.5456C61.6896 37.6722 61.5723 37.859 61.5253 38.1062H60.6456C60.6808 37.7943 60.7878 37.528 60.9667 37.3073C61.1456 37.0866 61.3758 36.9159 61.6573 36.7952C61.9388 36.6746 62.2379 36.6143 62.5546 36.6143C62.971 36.6143 63.32 36.6878 63.6015 36.835C63.883 36.9821 64.0956 37.1896 64.2393 37.4573C64.383 37.7251 64.4549 38.0444 64.4549 38.4152V41.1696H63.6895L63.6191 40.4192C63.5546 40.5369 63.4784 40.6487 63.3904 40.7547C63.3024 40.8606 63.1983 40.9518 63.0781 41.0284C62.9578 41.1049 62.82 41.1652 62.6646 41.2093C62.5092 41.2535 62.3376 41.2755 62.15 41.2755ZM62.3171 40.5605C62.5048 40.5605 62.6749 40.5222 62.8274 40.4457C62.9798 40.3692 63.1103 40.2647 63.2188 40.1323C63.3273 39.9999 63.4094 39.8498 63.4652 39.6821C63.5209 39.5143 63.5517 39.3422 63.5575 39.1656V39.1391H62.5106C62.2585 39.1391 62.0547 39.17 61.8992 39.2318C61.7438 39.2936 61.6309 39.3775 61.5605 39.4834C61.4902 39.5894 61.455 39.713 61.455 39.8542C61.455 39.9955 61.4887 40.1264 61.5561 40.2294C61.6236 40.3324 61.7218 40.4133 61.8508 40.4722C61.9799 40.531 62.1353 40.5605 62.3171 40.5605Z" fill="#8D8D8D"/>
<path d="M66.0914 35.8819C65.9213 35.8819 65.782 35.8289 65.6735 35.723C65.565 35.617 65.5107 35.4817 65.5107 35.3169C65.5107 35.1521 65.565 35.027 65.6735 34.924C65.782 34.821 65.9213 34.7695 66.0914 34.7695C66.2615 34.7695 66.3934 34.821 66.5048 34.924C66.6163 35.027 66.672 35.158 66.672 35.3169C66.672 35.4758 66.6163 35.617 66.5048 35.723C66.3934 35.8289 66.2556 35.8819 66.0914 35.8819ZM65.6427 41.17V36.7206H66.5224V41.17H65.6427Z" fill="#8D8D8D"/>
<path d="M67.7803 41.1696V36.7202H68.572L68.6512 37.5589C68.7509 37.3588 68.8799 37.1896 69.0383 37.0513C69.1966 36.9129 69.3829 36.8055 69.5969 36.729C69.811 36.6525 70.0558 36.6143 70.3315 36.6143V37.55H70.0148C69.833 37.55 69.66 37.5721 69.4958 37.6163C69.3315 37.6604 69.1864 37.7354 69.0603 37.8414C68.9342 37.9473 68.836 38.0915 68.7656 38.274C68.6952 38.4564 68.66 38.683 68.66 38.9537V41.1696H67.7803Z" fill="#8D8D8D"/>
<path d="M74.8709 41.17V35.7141H73.0498V34.9902H77.5804V35.7141H75.7506V41.17H74.8709Z" fill="#8D8D8D"/>
<path d="M79.2085 41.2755C78.8449 41.2755 78.5429 41.2137 78.3024 41.0902C78.062 40.9666 77.8831 40.8003 77.7658 40.5914C77.6485 40.3824 77.5898 40.1573 77.5898 39.916C77.5898 39.6217 77.6661 39.3701 77.8186 39.1612C77.9711 38.9523 78.1881 38.7919 78.4696 38.6801C78.7511 38.5682 79.0883 38.5123 79.4813 38.5123H80.6337C80.6337 38.2534 80.5956 38.0385 80.5194 37.8679C80.4431 37.6972 80.3302 37.5692 80.1807 37.4838C80.0311 37.3985 79.842 37.3558 79.6132 37.3558C79.3493 37.3558 79.1235 37.4191 78.9358 37.5456C78.7482 37.6722 78.6309 37.859 78.5839 38.1062H77.7042C77.7394 37.7943 77.8464 37.528 78.0253 37.3073C78.2042 37.0866 78.4344 36.9159 78.7159 36.7952C78.9974 36.6746 79.2965 36.6143 79.6132 36.6143C80.0296 36.6143 80.3786 36.6878 80.6601 36.835C80.9416 36.9821 81.1542 37.1896 81.2979 37.4573C81.4416 37.7251 81.5135 38.0444 81.5135 38.4152V41.1696H80.7481L80.6777 40.4192C80.6132 40.5369 80.5369 40.6487 80.449 40.7547C80.361 40.8606 80.2569 40.9518 80.1367 41.0284C80.0164 41.1049 79.8786 41.1652 79.7232 41.2093C79.5678 41.2535 79.3962 41.2755 79.2085 41.2755ZM79.3757 40.5605C79.5634 40.5605 79.7335 40.5222 79.886 40.4457C80.0384 40.3692 80.1689 40.2647 80.2774 40.1323C80.3859 39.9999 80.468 39.8498 80.5238 39.6821C80.5795 39.5143 80.6103 39.3422 80.6161 39.1656V39.1391H79.5692C79.3171 39.1391 79.1133 39.17 78.9578 39.2318C78.8024 39.2936 78.6895 39.3775 78.6191 39.4834C78.5488 39.5894 78.5136 39.713 78.5136 39.8542C78.5136 39.9955 78.5473 40.1264 78.6147 40.2294C78.6822 40.3324 78.7804 40.4133 78.9094 40.4722C79.0385 40.531 79.1939 40.5605 79.3757 40.5605Z" fill="#8D8D8D"/>
<path d="M82.2168 41.1701L83.7475 38.9454L82.2168 36.7207H83.1669L84.3282 38.451L85.4982 36.7207H86.4395L84.9088 38.9454L86.4395 41.1701H85.4982L84.3282 39.431L83.1669 41.1701H82.2168Z" fill="#8D8D8D"/>
<path d="M89.5098 41.17V34.9902H91.6123C92.105 34.9902 92.5097 35.0726 92.8264 35.2374C93.1431 35.4022 93.3777 35.6229 93.5302 35.8995C93.6826 36.1762 93.7589 36.491 93.7589 36.8442C93.7589 37.1973 93.6841 37.4871 93.5345 37.7667C93.385 38.0463 93.1519 38.2699 92.8352 38.4376C92.5185 38.6054 92.1108 38.6893 91.6123 38.6893H90.3895V41.17H89.5098ZM90.3895 37.9565H91.5771C92.0405 37.9565 92.3704 37.855 92.5668 37.6519C92.7633 37.4489 92.8616 37.1796 92.8616 36.8442C92.8616 36.4851 92.7633 36.2085 92.5668 36.0143C92.3704 35.8201 92.0405 35.723 91.5771 35.723H90.3895V37.9565Z" fill="#8D8D8D"/>
<path d="M94.665 41.1696V36.7202H95.4568L95.536 37.5589C95.6357 37.3588 95.7647 37.1896 95.9231 37.0513C96.0814 36.9129 96.2676 36.8055 96.4817 36.729C96.6958 36.6525 96.9406 36.6143 97.2163 36.6143V37.55H96.8996C96.7177 37.55 96.5447 37.5721 96.3805 37.6163C96.2163 37.6604 96.0711 37.7354 95.945 37.8414C95.819 37.9473 95.7207 38.0915 95.6503 38.274C95.58 38.4564 95.5448 38.683 95.5448 38.9537V41.1696H94.665Z" fill="#8D8D8D"/>
<path d="M99.9083 41.2755C99.4919 41.2755 99.118 41.1784 98.7866 40.9842C98.4553 40.79 98.1943 40.5178 98.0037 40.1676C97.8131 39.8174 97.7178 39.4128 97.7178 38.9537C97.7178 38.4947 97.8145 38.0724 98.0081 37.7222C98.2016 37.372 98.4655 37.0998 98.7998 36.9056C99.1341 36.7114 99.5095 36.6143 99.9259 36.6143C100.342 36.6143 100.724 36.7114 101.052 36.9056C101.38 37.0998 101.64 37.3705 101.831 37.7178C102.021 38.065 102.116 38.4741 102.116 38.9449C102.116 39.4157 102.021 39.8248 101.831 40.172C101.64 40.5193 101.377 40.79 101.043 40.9842C100.709 41.1784 100.331 41.2755 99.9083 41.2755ZM99.9083 40.5163C100.149 40.5163 100.367 40.4575 100.564 40.3398C100.76 40.222 100.919 40.047 101.039 39.8145C101.159 39.582 101.219 39.2921 101.219 38.9449C101.219 38.5977 101.16 38.3078 101.043 38.0753C100.926 37.8428 100.769 37.6678 100.573 37.55C100.376 37.4323 100.16 37.3735 99.9259 37.3735C99.6913 37.3735 99.4743 37.4323 99.2749 37.55C99.0755 37.6678 98.9157 37.8428 98.7954 38.0753C98.6752 38.3078 98.6151 38.5977 98.6151 38.9449C98.6151 39.2921 98.6752 39.582 98.7954 39.8145C98.9157 40.047 99.074 40.222 99.2705 40.3398C99.467 40.4575 99.6796 40.5163 99.9083 40.5163Z" fill="#8D8D8D"/>
<path d="M103.154 43.1118V36.7202H103.946L104.034 37.4088C104.128 37.2734 104.245 37.1454 104.386 37.0248C104.527 36.9041 104.695 36.8055 104.892 36.729C105.088 36.6525 105.318 36.6143 105.582 36.6143C106.005 36.6143 106.376 36.7173 106.695 36.9232C107.015 37.1292 107.264 37.4073 107.443 37.7575C107.622 38.1077 107.711 38.5064 107.711 38.9537C107.711 39.401 107.62 39.7998 107.439 40.15C107.257 40.5001 107.006 40.7753 106.686 40.9754C106.367 41.1755 105.996 41.2755 105.574 41.2755C105.228 41.2755 104.923 41.2064 104.659 41.0681C104.395 40.9298 104.187 40.737 104.034 40.4898V43.1118H103.154ZM105.433 40.5075C105.703 40.5075 105.942 40.4427 106.15 40.3133C106.358 40.1838 106.522 40.0013 106.642 39.7659C106.763 39.5305 106.823 39.2568 106.823 38.9449C106.823 38.633 106.763 38.3608 106.642 38.1283C106.522 37.8958 106.358 37.7134 106.15 37.5809C105.942 37.4485 105.703 37.3823 105.433 37.3823C105.163 37.3823 104.915 37.4485 104.707 37.5809C104.499 37.7134 104.336 37.8958 104.219 38.1283C104.101 38.3608 104.043 38.633 104.043 38.9449C104.043 39.2568 104.101 39.5305 104.219 39.7659C104.336 40.0013 104.499 40.1838 104.707 40.3133C104.915 40.4427 105.157 40.5075 105.433 40.5075Z" fill="#8D8D8D"/>
<path d="M110.746 41.2755C110.324 41.2755 109.949 41.1784 109.62 40.9842C109.292 40.79 109.035 40.5193 108.85 40.172C108.666 39.8248 108.573 39.4216 108.573 38.9626C108.573 38.5035 108.666 38.0812 108.85 37.731C109.035 37.3808 109.292 37.1072 109.62 36.91C109.949 36.7128 110.33 36.6143 110.764 36.6143C111.198 36.6143 111.57 36.7114 111.881 36.9056C112.192 37.0998 112.432 37.3573 112.602 37.6781C112.772 37.9988 112.858 38.3534 112.858 38.7419C112.858 38.8007 112.856 38.864 112.853 38.9317C112.85 38.9993 112.846 39.0744 112.84 39.1568H109.215V38.53H111.978C111.96 38.1592 111.837 37.8693 111.608 37.6604C111.38 37.4515 111.095 37.347 110.755 37.347C110.515 37.347 110.295 37.4014 110.095 37.5103C109.896 37.6192 109.736 37.7781 109.616 37.987C109.495 38.196 109.435 38.4593 109.435 38.7772V39.0244C109.435 39.3539 109.495 39.632 109.616 39.8586C109.736 40.0852 109.896 40.2559 110.095 40.3707C110.295 40.4854 110.512 40.5428 110.746 40.5428C111.028 40.5428 111.259 40.481 111.441 40.3574C111.623 40.2338 111.758 40.0661 111.846 39.8542H112.726C112.649 40.1249 112.52 40.3677 112.338 40.5825C112.157 40.7974 111.932 40.9666 111.666 41.0902C111.399 41.2137 111.092 41.2755 110.746 41.2755Z" fill="#8D8D8D"/>
<path d="M113.834 41.1696V36.7202H114.626L114.705 37.5589C114.805 37.3588 114.934 37.1896 115.092 37.0513C115.25 36.9129 115.437 36.8055 115.651 36.729C115.865 36.6525 116.11 36.6143 116.385 36.6143V37.55H116.069C115.887 37.55 115.714 37.5721 115.549 37.6163C115.385 37.6604 115.24 37.7354 115.114 37.8414C114.988 37.9473 114.89 38.0915 114.819 38.274C114.749 38.4564 114.714 38.683 114.714 38.9537V41.1696H113.834Z" fill="#8D8D8D"/>
<path d="M119.016 41.1702C118.74 41.1702 118.5 41.126 118.294 41.0377C118.089 40.9495 117.931 40.8023 117.819 40.5963C117.708 40.3903 117.652 40.1108 117.652 39.7576V37.4711H116.887V36.7208H117.652L117.758 35.6084H118.532V36.7208H119.79V37.4711H118.532V39.7665C118.532 40.0196 118.585 40.1917 118.69 40.2829C118.796 40.3742 118.978 40.4198 119.236 40.4198H119.746V41.1702H119.016Z" fill="#8D8D8D"/>
<path d="M121.268 43.1123L122.351 40.6757H122.095L120.345 36.7207H121.295L122.685 39.9518L124.084 36.7207H125.007L122.192 43.1123H121.268Z" fill="#8D8D8D"/>
<path d="M0 13.2688L20.9406 0L41.868 13.2158L26.4418 6.79183V18.8953H15.5478V6.7418L0 13.2688Z" fill="url(#paint0_linear_102_1446)"/>
<path d="M0 17.5105L10.894 13.2686V41.9852H0V17.5105Z" fill="url(#paint1_linear_102_1446)"/>
<path d="M41.8677 17.5105L30.9736 13.2686V41.9852H41.8677V17.5105Z" fill="url(#paint2_linear_102_1446)"/>
<path d="M26.4419 23.2207H15.5479V41.985H26.4419V23.2207Z" fill="url(#paint3_linear_102_1446)"/>
<defs>
<linearGradient id="paint0_linear_102_1446" x1="20.934" y1="0" x2="20.934" y2="18.8953" gradientUnits="userSpaceOnUse">
<stop stop-color="#1D7A96"/>
<stop offset="1" stop-color="#01414A"/>
</linearGradient>
<linearGradient id="paint1_linear_102_1446" x1="5.44702" y1="13.2686" x2="5.44702" y2="41.9852" gradientUnits="userSpaceOnUse">
<stop stop-color="#1D7A96"/>
<stop offset="1" stop-color="#01414A"/>
</linearGradient>
<linearGradient id="paint2_linear_102_1446" x1="36.4206" y1="13.2686" x2="36.4206" y2="41.9852" gradientUnits="userSpaceOnUse">
<stop stop-color="#1D7A96"/>
<stop offset="1" stop-color="#01414A"/>
</linearGradient>
<linearGradient id="paint3_linear_102_1446" x1="20.9949" y1="23.2207" x2="20.9949" y2="41.985" gradientUnits="userSpaceOnUse">
<stop stop-color="#1D7A96"/>
<stop offset="1" stop-color="#01414A"/>
</linearGradient>
</defs>
</svg>
